<svg width="176" height="175" viewBox="0 0 176 175" fill="none" xmlns="http://www.w3.org/2000/svg">
<path d="M87.72 171.015C134.51 171.015 172.44 133.404 172.44 87.0076C172.44 40.6115 134.51 3 87.72 3C40.9304 3 3 40.6115 3 87.0076C3 133.404 40.9304 171.015 87.72 171.015Z" stroke="#DD3032" stroke-width="6" stroke-miterlimit="10"/>
<path d="M87.72 171.015C125.341 171.015 157.226 146.675 168.284 113.034C147.165 82.3322 126.07 51.6547 104.951 20.9531C93.7714 41.0995 81.4741 63.0052 70.2948 83.1516" stroke="#DD3032" stroke-width="6" stroke-miterlimit="10"/>
<path d="M99.8228 133.445C75.9817 92.8393 70.7808 84.0192 46.9397 43.4131C34.4723 68.5479 22.0292 93.6827 9.56177 118.793" stroke="#DD3032" stroke-width="6" stroke-miterlimit="10"/>
<path d="M87.72 171.015C113.36 171.015 136.302 159.713 151.831 141.88C142.207 133.325 133.896 125.517 116.252 107.78C103.711 128.698 91.171 149.615 78.6307 170.509C81.62 170.822 84.6336 170.991 87.6957 170.991L87.72 171.015Z" stroke="#DD3032" stroke-width="6" stroke-miterlimit="10"/>
</svg>
